HIERARCHY
ROOT hip
{
	OFFSET 0.000000 0.000000 0.000000 
	CHANNELS 6 Xposition Yposition Zposition Zrotation Xrotation Yrotation
	JOINT abdomen
	{
		OFFSET 0.000000 3.402643 0.000000 
		CHANNELS 3 Zrotation Xrotation Yrotation
		JOINT chest
		{
			OFFSET 0.000000 8.438565 -0.680529 
			CHANNELS 3 Zrotation Xrotation Yrotation
			JOINT neck
			{
				OFFSET 0.000000 10.207942 -0.272212 
				CHANNELS 3 Zrotation Xrotation Yrotation
				JOINT head
				{
					OFFSET 0.000000 3.130431 0.000000 
					CHANNELS 3 Zrotation Xrotation Yrotation
					End Site
					{
						OFFSET 0.000000 3.130435 0.000000 
					}
				}
			}
			JOINT lCollar
			{
				OFFSET 3.470700 6.669187 -0.816635 
				CHANNELS 3 Zrotation Xrotation Yrotation
				JOINT lShldr
				{
					OFFSET 3.198488 0.000000 0.000000 
					CHANNELS 3 Zrotation Xrotation Yrotation
					JOINT lForeArm
					{
						OFFSET 10.139888 0.000000 0.000000 
						CHANNELS 3 Zrotation Xrotation Yrotation
						JOINT lHand
						{
							OFFSET 8.370511 0.000000 0.000000 
							CHANNELS 3 Zrotation Xrotation Yrotation
							End Site
							{
								OFFSET 4.083176 0.000000 0.000000 
							}
						}
					}
				}
			}
			JOINT rCollar
			{
				OFFSET -3.470700 6.669187 -0.816635 
				CHANNELS 3 Zrotation Xrotation Yrotation
				JOINT rShldr
				{
					OFFSET -3.198488 0.000000 0.000000 
					CHANNELS 3 Zrotation Xrotation Yrotation
					JOINT rForeArm
					{
						OFFSET -10.139888 0.000000 0.000000 
						CHANNELS 3 Zrotation Xrotation Yrotation
						JOINT rHand
						{
							OFFSET -8.370511 0.000000 0.000000 
							CHANNELS 3 Zrotation Xrotation Yrotation
							End Site
							{
								OFFSET -4.083176 0.000000 0.000000 
							}
						}
					}
				}
			}
		}
	}
	JOINT lThigh
	{
		OFFSET 5.308129 -1.633274 1.361059 
		CHANNELS 3 Zrotation Xrotation Yrotation
		JOINT lShin
		{
			OFFSET -2.041588 -20.007561 0.000000 
			CHANNELS 3 Zrotation Xrotation Yrotation
			JOINT lFoot
			{
				OFFSET 0.000000 -19.190928 -1.224953 
				CHANNELS 3 Zrotation Xrotation Yrotation
				End Site
				{
					OFFSET 0.000000 -2.449906 4.627600 
				}
			}
		}
	}
	JOINT rThigh
	{
		OFFSET -5.308129 -1.633274 1.361059 
		CHANNELS 3 Zrotation Xrotation Yrotation
		JOINT rShin
		{
			OFFSET 2.041588 -20.007561 0.000000 
			CHANNELS 3 Zrotation Xrotation Yrotation
			JOINT rFoot
			{
				OFFSET 0.000000 -19.190928 -1.224953 
				CHANNELS 3 Zrotation Xrotation Yrotation
				End Site
				{
					OFFSET 0.000000 -2.449906 4.627600 
				}
			}
		}
	}
}
MOTION
Frames: 6
Frame Time: 0.033333
0.491745 43.337170 0.373418 0.312505 -0.322262 -33.084103 -1.221201 1.630485 -34.203526 -2.617268 -0.438994 22.635710 -0.000000 29.345699 -0.000000 -3.193554 0.633781 16.871294 1.041491 -2.051418 -13.265839 -92.850082 6.108064 24.238155 28.365248 68.713562 -36.967285 3.211169 -0.420548 -15.292252 7.841400 2.135702 15.620241 72.828873 -1.188841 19.320732 5.392206 -5.286124 132.942062 48.771046 -8.335639 10.656126 2.026678 -9.360534 0.855140 -3.294849 28.486170 -26.526960 6.568149 -16.173346 30.385401 -3.398867 -19.554010 -1.371010 2.249439 30.702190 30.688822 2.367660 -2.424899 28.687866 
0.480426 43.354641 0.394510 0.244143 -0.253905 -31.161005 -1.240813 1.747637 -33.702591 -3.173879 0.321774 22.810272 -0.000000 36.992199 -0.000000 -3.421556 2.622277 8.896379 1.560109 -2.238162 -11.134795 -90.347305 5.823621 23.733459 33.192142 70.898766 -43.102810 5.519284 -1.162910 -18.698174 7.189686 2.307798 18.219625 77.796532 -0.710044 18.526863 5.216750 -5.171394 132.626083 42.783287 -8.640662 11.053803 2.366622 -9.571197 0.923958 -3.294847 28.486176 -26.526957 6.316091 -16.006519 28.309116 -3.350590 -19.267113 -1.310633 2.314615 30.584110 30.580948 2.610092 -2.826697 26.868507 
0.488954 43.340931 0.379379 0.117188 -0.126951 -28.495829 -1.280095 2.020976 -33.109138 -3.750680 1.091409 22.737556 -0.000000 44.267555 -0.000000 -3.744400 4.940655 1.123720 2.991570 -2.505870 -9.084890 -88.223854 5.575493 23.025312 35.615974 71.664696 -46.925762 7.417664 -1.833027 -21.353323 4.997943 1.833089 20.825014 84.486641 0.384238 17.715258 5.053881 -5.043774 132.437424 37.785587 -8.925028 11.326560 2.887127 -10.201245 1.031848 -3.108376 28.939730 -26.658539 5.812880 -15.937054 25.507336 -3.234361 -19.108252 -2.123785 1.378106 30.729925 31.674963 3.107687 -3.779643 24.432369 
0.528617 43.278645 0.306932 -0.000000 -0.000010 -25.048830 -1.368500 2.509050 -32.488907 -4.279418 1.782132 22.241976 -0.000000 50.126945 -0.000000 -3.913346 7.813995 -4.291356 4.415689 -2.701723 -7.395030 -86.505630 5.411340 22.154713 36.300724 71.757301 -48.643879 8.628006 -2.343508 -22.372282 2.796192 1.110802 22.949610 90.497070 1.531150 17.057060 4.866213 -4.844027 132.518433 33.751293 -9.159099 11.417699 3.461795 -11.240760 1.107455 -3.221712 29.874031 -26.543262 5.670085 -15.850675 22.316736 -3.141789 -19.153677 -1.367684 2.180704 31.202068 30.764116 3.082979 -4.543874 20.938707 
0.606031 43.157650 0.164741 -0.058594 0.048826 -20.849569 -1.525895 3.250800 -31.896130 -4.720664 2.316349 21.226389 -0.000000 53.828133 -0.000000 -3.755223 11.353163 -5.832009 5.082710 -2.813752 -6.317700 -85.200539 5.397014 21.162752 36.572605 71.667534 -49.304783 8.967111 -2.659483 -21.109203 1.719706 0.700172 24.265718 93.937241 2.275948 16.683470 4.620095 -4.536384 132.935181 30.599247 -9.356853 11.262999 3.952071 -12.615620 1.264758 -3.093914 30.999269 -26.605738 5.146605 -15.582465 18.540602 -3.187236 -19.386526 -1.605815 1.931295 32.185669 30.979282 3.326295 -5.722659 17.142614 
0.709121 42.996773 -0.024956 -0.058594 0.048814 -16.201136 -1.713475 4.148543 -31.311556 -5.054555 2.723759 20.005589 -0.000000 55.644512 -0.000000 -3.298224 15.142049 -4.284057 5.046790 -2.897199 -5.773460 -84.221596 5.496461 20.165075 36.810158 71.524017 -49.578861 8.703019 -2.800942 -18.195145 1.667302 0.699184 24.910620 95.028122 2.602651 16.540987 4.308092 -4.155892 133.465378 28.048044 -9.512133 10.754910 4.298558 -14.201097 1.400459 -3.033920 32.278015 -26.506332 4.770487 -15.255297 14.102910 -3.330696 -19.785978 -1.339728 2.215810 33.461491 30.664585 3.435709 -7.050155 12.851875 
